<?xml version="1.0" encoding="UTF-8" standalone="no"?>
<!DOCTYPE svg PUBLIC "-//W3C//DTD SVG 1.1//EN" "http://www.w3.org/Graphics/SVG/1.1/DTD/svg11.dtd">
<!-- Created with Vectornator (http://vectornator.io/) -->
<svg height="100%" stroke-miterlimit="10" style="fill-rule:nonzero;clip-rule:evenodd;stroke-linecap:round;stroke-linejoin:round;" version="1.1" viewBox="0 0 1024 1024" width="100%" xml:space="preserve" xmlns="http://www.w3.org/2000/svg" xmlns:vectornator="http://vectornator.io" xmlns:xlink="http://www.w3.org/1999/xlink">
<defs/>
<clipPath id="ArtboardFrame">
<rect height="1024" width="1024" x="0" y="0"/>
</clipPath>
<g clip-path="url(#ArtboardFrame)" id="Слой-1" vectornator:layerName="Слой 1">
<path d="M173.45 101.039L850.55 101.039C884.404 101.039 911.848 128.483 911.848 162.337L911.848 839.741C911.848 873.595 884.404 901.039 850.55 901.039L173.45 901.039C139.596 901.039 112.152 873.595 112.152 839.741L112.152 162.337C112.152 128.483 139.596 101.039 173.45 101.039Z" fill="#bc4123" fill-rule="nonzero" opacity="1" stroke="none"/>
<g opacity="1">
<path d="M512 829.033C512 786.826 512 217.461 512 217.461" fill="none" stroke="#ffffff" stroke-linecap="round" stroke-linejoin="round" stroke-width="16"/>
<g fill="#ffffff" stroke="none">
<path d="M512 231.461L568 273.461L512 161.461L456 273.461L512 231.461Z" fill="#ffffff"/>
<path d="M464 825.033L464 841.033L560 841.032L560 825.032L464 825.033Z" fill="#ffffff"/>
</g>
</g>
<g opacity="1">
<path d="M184.2 512C226.407 512 795.772 512 795.772 512" fill="none" stroke="#ffffff" stroke-linecap="round" stroke-linejoin="bevel" stroke-width="16"/>
<g fill="#ffffff" stroke="none">
<path d="M781.772 512L739.772 568L851.772 512L739.771 456L781.772 512Z" fill="#ffffff"/>
<path d="M188.2 464L172.2 464L172.2 560L188.2 560L188.2 464Z" fill="#ffffff"/>
</g>
</g>
<g opacity="1">
<path d="M512 519.402L504.217 513.747L507.19 504.598L516.81 504.598L519.783 513.747L512 519.402Z" fill="none" stroke="#ffffff" stroke-linecap="round" stroke-linejoin="round" stroke-width="16"/>
</g>
</g>
</svg>
