<?xml version="1.0" encoding="UTF-8" standalone="no"?>
<!DOCTYPE svg PUBLIC "-//W3C//DTD SVG 1.1//EN" "http://www.w3.org/Graphics/SVG/1.1/DTD/svg11.dtd">
<!-- Created with Vectornator (http://vectornator.io/) -->
<svg height="100%" stroke-miterlimit="10" style="fill-rule:nonzero;clip-rule:evenodd;stroke-linecap:round;stroke-linejoin:round;" version="1.1" viewBox="0 0 1024 1024" width="100%" xml:space="preserve" xmlns="http://www.w3.org/2000/svg" xmlns:xlink="http://www.w3.org/1999/xlink">
<defs/>
<clipPath id="ArtboardFrame">
<rect height="1024" width="1024" x="0" y="0"/>
</clipPath>
<g clip-path="url(#ArtboardFrame)" id="Слой-1">
<path d="M173.45 112L850.55 112C884.404 112 911.848 139.444 911.848 173.298L911.848 850.702C911.848 884.556 884.404 912 850.55 912L173.45 912C139.596 912 112.152 884.556 112.152 850.702L112.152 173.298C112.152 139.444 139.596 112 173.45 112Z" fill="#bc4123" fill-rule="nonzero" opacity="1" stroke="none"/>
<g opacity="1">
<path d="M512 829.033C512 786.826 512 217.461 512 217.461" fill="none" stroke="#ffffff" stroke-linecap="round" stroke-linejoin="round" stroke-width="16"/>
<g fill="#ffffff" stroke="none">
<path d="M512 231.461L568 273.461L512 161.461L456 273.461L512 231.461Z" fill="#ffffff"/>
<path d="M464 825.033L464 841.033L560 841.032L560 825.032L464 825.033Z" fill="#ffffff"/>
</g>
</g>
<g opacity="1">
<path d="M184.2 512C226.407 512 795.772 512 795.772 512" fill="none" stroke="#ffffff" stroke-linecap="round" stroke-linejoin="bevel" stroke-width="16"/>
<g fill="#ffffff" stroke="none">
<path d="M781.772 512L739.772 568L851.772 512L739.771 456L781.772 512Z" fill="#ffffff"/>
<path d="M188.2 464L172.2 464L172.2 560L188.2 560L188.2 464Z" fill="#ffffff"/>
</g>
</g>
<g opacity="1">
<path d="M512 519.402L504.217 513.747L507.19 504.598L516.81 504.598L519.783 513.747L512 519.402Z" fill="none" stroke="#ffffff" stroke-linecap="round" stroke-linejoin="round" stroke-width="16"/>

</g>
<path d="M512 695.784L352.838 603.892L352.838 420.108L512 328.216L671.162 420.108L671.162 603.892L512 695.784Z" fill="none" opacity="1" stroke="#ffffff" stroke-linecap="round" stroke-linejoin="bevel" stroke-width="8"/>
</g>
</svg>
