<?xml version="1.0" encoding="UTF-8" standalone="no"?>
<!DOCTYPE svg PUBLIC "-//W3C//DTD SVG 1.1//EN" "http://www.w3.org/Graphics/SVG/1.1/DTD/svg11.dtd">
<!-- Created with Vectornator (http://vectornator.io/) -->
<svg height="100%" stroke-miterlimit="10" style="fill-rule:nonzero;clip-rule:evenodd;stroke-linecap:round;stroke-linejoin:round;" version="1.1" viewBox="0 0 512 512" width="100%" xml:space="preserve" xmlns="http://www.w3.org/2000/svg" xmlns:vectornator="http://vectornator.io" xmlns:xlink="http://www.w3.org/1999/xlink">
<defs/>
<clipPath id="ArtboardFrame">
<rect height="512" width="512" x="0" y="0"/>
</clipPath>
<g clip-path="url(#ArtboardFrame)" id="Слой-1" vectornator:layerName="Слой 1">
<path d="M24.6628 291.218L19.2138 293.158C21.0569 298.335 26.1322 300.519 31.1519 299.96C32.0663 299.941 32.2231 298.657 31.4842 298.306C29.2675 297.254 26.0209 295.033 24.6628 291.218ZM51.4313 271.557L62.3293 267.677L65.2394 275.851L54.3414 279.731L51.4313 271.557ZM45.9823 273.497L54.1558 270.587L52.2157 265.138L46.7667 267.078L45.9823 273.497Z" fill="#bc4123" fill-rule="nonzero" opacity="1" stroke="#bc4123" stroke-linecap="butt" stroke-linejoin="round" stroke-width="1"/>
<path d="M19.3405 310.759L31.8733 306.297C37.0498 304.454 39.6815 298.912 37.8385 293.735L34.3464 283.927L12.5503 291.687L19.3405 310.759Z" fill="none" opacity="1" stroke="#bc4123" stroke-linecap="butt" stroke-linejoin="round" stroke-width="1"/>
<path d="M58.7279 266.184L6.14493 284.906C2.87553 286.07-0.301088 291.806 0.0228294 298.751C0.212626 303.595 6.63588 300.08 7.54603 304.361C8.16516 307.824 7.21962 319.827 10.2267 328.273C12.4578 334.539 16.5218 336.469 20.0636 335.208L26.6025 332.88C30.1443 331.619 33.9029 327.518 25.0757 302.725C24.1056 300 25.8601 296.306 29.1295 295.142L60.4613 283.986C62.6409 283.21 63.8691 280.624 63.0931 278.444C63.0931 278.444 58.7279 266.184 58.7279 266.184Z" fill="#bc4123" fill-rule="nonzero" opacity="1" stroke="#bc4123" stroke-linecap="butt" stroke-linejoin="round" stroke-width="1"/>
<path d="M480.438 177.46C463.006 177.46 448.876 212.469 448.876 255.654C448.876 298.84 463.006 333.849 480.438 333.849C497.869 333.849 512 298.84 512 255.654C512 212.469 497.869 177.46 480.438 177.46Z" fill="#bc4123" fill-rule="nonzero" opacity="1" stroke="#bc4123" stroke-linecap="butt" stroke-linejoin="round" stroke-width="1"/>
<path d="M480.438 194.673C466.49 194.673 455.182 222.686 455.182 257.242C455.182 291.799 466.49 319.812 480.438 319.812C494.386 319.812 505.693 291.799 505.693 257.242C505.693 222.686 494.386 194.673 480.438 194.673Z" fill="#ffffff" fill-rule="nonzero" opacity="1" stroke="#bc4123" stroke-linecap="butt" stroke-linejoin="round" stroke-width="1"/>
<path d="M480.438 210.297C469.973 210.297 461.489 231.315 461.489 257.242C461.489 283.169 469.973 304.188 480.438 304.188C490.903 304.188 499.387 283.169 499.387 257.242C499.387 231.315 490.903 210.297 480.438 210.297Z" fill="#bc4123" fill-rule="nonzero" opacity="1" stroke="#bc4123" stroke-linecap="butt" stroke-linejoin="round" stroke-width="1"/>
<path d="M480.438 225.916C473.453 225.91 467.789 239.937 467.789 257.242C467.789 274.547 473.453 288.574 480.438 288.568C487.423 288.574 493.087 274.547 493.087 257.242C493.087 239.937 487.423 225.91 480.438 225.916Z" fill="#ffffff" fill-rule="nonzero" opacity="1" stroke="#bc4123" stroke-linecap="butt" stroke-linejoin="round" stroke-width="1"/>
<path d="M480.438 241.921C476.955 241.918 474.131 248.911 474.131 257.54C474.131 266.168 476.955 273.162 480.438 273.159C483.92 273.162 486.744 266.168 486.744 257.54C486.744 248.911 483.92 241.918 480.438 241.921Z" fill="#bc4123" fill-rule="nonzero" opacity="1" stroke="#bc4123" stroke-linecap="butt" stroke-linejoin="round" stroke-width="1"/>
<path d="M84.1561 263.884L467.515 160.412L468.336 161.666L84.9774 265.138L84.1561 263.884Z" fill="#ffffff" fill-rule="nonzero" opacity="1" stroke="#e94420" stroke-linecap="butt" stroke-linejoin="round" stroke-width="1"/>
<path d="M478.126 151.79L470.397 153.828C469.864 153.968 469.545 154.515 469.685 155.049L472.232 164.71C472.373 165.243 472.919 165.561 473.453 165.421L481.182 163.383C481.715 163.243 482.033 162.696 481.893 162.163L479.346 152.502C479.206 151.969 478.659 151.65 478.126 151.79ZM471.416 157.692L470.906 155.76L478.152 153.85C478.419 153.779 478.693 153.938 478.762 154.205L479.017 155.171C479.087 155.438 478.928 155.711 478.661 155.78L471.416 157.692ZM471.013 164.003L468.975 156.27L467.907 155.055C467.657 154.771 467.269 154.652 466.902 154.749L465.567 155.101L468.623 166.694L469.959 166.342C470.325 166.246 470.604 165.952 470.682 165.582L471.013 164.003ZM467.551 158.711L467.042 156.779L468.009 156.524L468.518 158.456L467.551 158.711Z" fill="#bc4123" fill-rule="nonzero" opacity="1" stroke="#ffffff" stroke-linecap="butt" stroke-linejoin="round" stroke-width="1"/>
<path d="M470.652 154.794L473.199 164.455L470.301 165.219L467.754 155.558L470.652 154.794Z" fill="#bc4123" fill-rule="nonzero" opacity="1" stroke="#ffffff" stroke-linecap="butt" stroke-linejoin="round" stroke-width="1"/>
<path d="M486.416 155.804C485.713 153.137 482.98 151.544 480.312 152.247L482.859 161.908C485.527 161.205 487.12 158.472 486.416 155.804ZM482.043 154.891L481.534 152.959C483.612 152.411 485.49 155.016 485.49 155.016C485.49 155.016 483.954 154.387 482.043 154.891Z" fill="#bc4123" fill-rule="nonzero" opacity="1" stroke="#ffffff" stroke-linecap="butt" stroke-linejoin="round" stroke-width="1"/>
<path d="M76.6077 277.76L89.7661 278.498L81.1425 269.855L89.3555 261.252L78.8302 260.514L80.2592 251.768L69.851 259.615L63.5488 254.311L63.3267 263.904L64.2648 266.319L65.531 258.66L68.5445 261.146L69.723 262.297L71.1 261.323L77.4268 256.525L76.7831 260.139L76.3306 262.363L78.5825 262.512L84.9075 262.98L79.7382 268.499L78.3823 269.903L79.7866 271.259L84.5994 276.117L76.679 275.684L74.9071 275.641L74.5606 277.385L73.9453 280.695L68.017 275.978L69.2513 279.155L75.271 284.861L76.6077 277.76Z" fill="#ffffff" fill-rule="nonzero" opacity="1" stroke="#bc4123" stroke-linecap="butt" stroke-linejoin="round" stroke-width="1"/>
<path d="M65.9831 267.542L63.435 266.63L66.7923 275.272L67.7669 274.016L71.4085 276.989L71.0501 272.302L78.4265 273.97L72.597 269.507L77.6457 265.936L71.9131 266.993L72.7195 262.292L68.6519 266.505L65.5122 261.435L65.9831 267.542Z" fill="#ffffff" fill-rule="nonzero" opacity="1" stroke="#bc4123" stroke-linecap="butt" stroke-linejoin="round" stroke-width="1"/>
</g>
</svg>
