<?xml version="1.0" encoding="UTF-8" standalone="no"?>
<!DOCTYPE svg PUBLIC "-//W3C//DTD SVG 1.1//EN" "http://www.w3.org/Graphics/SVG/1.1/DTD/svg11.dtd">
<!-- Created with Vectornator (http://vectornator.io/) -->
<svg height="100%" stroke-miterlimit="10" style="fill-rule:nonzero;clip-rule:evenodd;stroke-linecap:round;stroke-linejoin:round;" version="1.1" viewBox="0 0 1024 1024" width="100%" xml:space="preserve" xmlns="http://www.w3.org/2000/svg" xmlns:vectornator="http://vectornator.io" xmlns:xlink="http://www.w3.org/1999/xlink">
<defs/>
<g id="Слой-1" vectornator:layerName="Слой 1">
<path d="M766.545 912L257.455 912C177.455 912 112 846.545 112 766.545L112 257.455C112 177.455 177.455 112 257.455 112L766.545 112C846.545 112 912 177.455 912 257.455L912 766.545C912 846.545 846.545 912 766.545 912Z" fill="#ffffff" fill-rule="nonzero" opacity="1" stroke="none"/>
</g>
<g id="Слой-2" vectornator:layerName="Слой 2">
<path d="M820.091 298.98L485.513 789.695C474.36 806.424 457.631 812 446.478 812C429.749 812 413.021 800.847 401.868 795.271L206.697 600.1C195.545 588.948 195.545 566.642 206.697 549.914L256.884 499.727C268.037 488.574 290.342 488.574 301.494 505.303L429.749 633.558L702.989 226.488C714.141 209.759 736.446 209.759 747.599 215.335L803.362 254.369C825.667 265.522 831.244 282.251 820.091 298.98Z" fill="#bc4123" fill-rule="nonzero" opacity="1" stroke="none"/>
</g>
</svg>
