<?xml version="1.0" encoding="UTF-8" standalone="no"?>
<!DOCTYPE svg PUBLIC "-//W3C//DTD SVG 1.1//EN" "http://www.w3.org/Graphics/SVG/1.1/DTD/svg11.dtd">
<!-- Created with Vectornator (http://vectornator.io/) -->
<svg height="100%" stroke-miterlimit="10" style="fill-rule:nonzero;clip-rule:evenodd;stroke-linecap:round;stroke-linejoin:round;" version="1.1" viewBox="0 0 1024 1024" width="100%" xml:space="preserve" xmlns="http://www.w3.org/2000/svg" xmlns:vectornator="http://vectornator.io" xmlns:xlink="http://www.w3.org/1999/xlink">
<defs/>
<g id="back" vectornator:layerName="back"/>
<g id="Symbols" vectornator:layerName="Symbols">
<path d="M803.57 803.591C802.698 804.777 802.956 806.447 804.143 807.319L808.445 810.474C809.632 811.346 811.301 811.087 812.173 809.901C813.045 808.714 812.786 807.044 811.6 806.172L807.298 803.017C806.109 802.145 804.439 802.404 803.57 803.591ZM795.684 814.344C794.811 815.53 795.07 817.2 796.257 818.072L800.559 821.227C801.745 822.099 803.415 821.84 804.287 820.654C805.159 819.467 804.9 817.797 803.714 816.925L799.412 813.77C798.225 812.898 796.556 813.157 795.684 814.344ZM787.8 825.097C786.928 826.283 787.187 827.953 788.374 828.825L792.675 831.98C793.862 832.852 795.532 832.593 796.404 831.407C797.276 830.22 797.017 828.55 795.83 827.678L791.528 824.523C790.339 823.654 788.67 823.91 787.8 825.097ZM779.914 835.852C779.042 837.039 779.301 838.709 780.487 839.581L784.789 842.736C785.976 843.608 787.645 843.349 788.518 842.162C789.39 840.976 789.131 839.306 787.944 838.434L783.642 835.279C782.456 834.407 780.786 834.663 779.914 835.852ZM785.832 725.975C784.957 725.975 784.101 725.546 783.589 724.757L777.799 715.801C776.999 714.564 777.354 712.913 778.591 712.113C779.831 711.315 781.48 711.667 782.28 712.905L788.069 721.86C788.87 723.098 788.515 724.749 787.277 725.549C786.829 725.837 786.328 725.975 785.832 725.975ZM803.21 752.85C802.335 752.85 801.479 752.421 800.967 751.631L789.382 733.715C788.582 732.477 788.936 730.827 790.174 730.026C791.411 729.229 793.062 729.581 793.862 730.819L805.447 748.735C806.247 749.972 805.892 751.623 804.655 752.423C804.207 752.711 803.706 752.85 803.21 752.85ZM866.688 698.586L823.209 758.578C822.238 759.917 822.193 761.712 823.089 763.099L869.354 834.599L845.352 834.599L812.093 783.199C811.309 781.986 810.021 781.373 808.733 781.373C807.517 781.373 806.295 781.919 805.495 783.026L768.118 834.599L754.677 834.599L800.972 770.718C801.94 769.379 801.988 767.585 801.092 766.198L757.344 698.586L781.346 698.586L812.09 746.1C812.874 747.313 814.163 747.927 815.451 747.927C816.667 747.927 817.888 747.38 818.688 746.273L853.246 698.586L866.688 698.586M866.688 693.252L853.246 693.252C851.537 693.252 849.931 694.071 848.929 695.455L815.512 741.566L785.824 695.69C784.843 694.17 783.154 693.252 781.346 693.252L757.344 693.252C755.389 693.252 753.592 694.322 752.658 696.037C751.725 697.754 751.805 699.842 752.866 701.482L796.118 768.326L750.359 831.468C749.183 833.092 749.015 835.236 749.927 837.023C750.837 838.81 752.672 839.933 754.677 839.933L768.118 839.933C769.828 839.933 771.433 839.114 772.436 837.73L808.671 787.731L840.874 837.498C841.856 839.015 843.544 839.933 845.352 839.933L869.354 839.933C871.309 839.933 873.107 838.863 874.04 837.148C874.974 835.431 874.894 833.343 873.832 831.703L828.065 760.971L871.005 701.717C872.181 700.093 872.349 697.949 871.437 696.162C870.528 694.375 868.693 693.252 866.688 693.252L866.688 693.252Z" fill="#ffffff" fill-opacity="0.7" fill-rule="nonzero" opacity="1" stroke="none"/>
<path d="M225.703 152.184C224.839 152.184 223.995 151.761 223.489 150.982L217.776 142.145C216.987 140.924 217.337 139.295 218.558 138.505C219.779 137.718 221.408 138.066 222.197 139.287L227.91 148.124C228.7 149.345 228.35 150.974 227.129 151.763C226.687 152.047 226.192 152.184 225.703 152.184ZM242.85 178.703C241.987 178.703 241.142 178.279 240.637 177.5L229.205 159.821C228.416 158.6 228.766 156.971 229.987 156.182C231.208 155.395 232.837 155.742 233.626 156.963L245.058 174.642C245.847 175.863 245.497 177.492 244.276 178.282C243.834 178.566 243.339 178.703 242.85 178.703ZM273.579 193.579C273.579 195.032 274.758 196.211 276.21 196.211L281.474 196.211C282.926 196.211 284.105 195.032 284.105 193.579C284.105 192.126 282.926 190.947 281.474 190.947L276.21 190.947C274.758 190.947 273.579 192.126 273.579 193.579ZM273.579 206.737C273.579 208.189 274.758 209.368 276.21 209.368L281.474 209.368C282.926 209.368 284.105 208.189 284.105 206.737C284.105 205.284 282.926 204.105 281.474 204.105L276.21 204.105C274.758 204.105 273.579 205.284 273.579 206.737ZM273.579 219.895C273.579 221.347 274.758 222.526 276.21 222.526L281.474 222.526C282.926 222.526 284.105 221.347 284.105 219.895C284.105 218.442 282.926 217.263 281.474 217.263L276.21 217.263C274.758 217.263 273.579 218.442 273.579 219.895ZM273.579 246.211C273.579 247.663 274.758 248.842 276.21 248.842L281.474 248.842C282.926 248.842 284.105 247.663 284.105 246.211C284.105 244.758 282.926 243.579 281.474 243.579L276.21 243.579C274.758 243.579 273.579 244.758 273.579 246.211ZM273.579 233.053C273.579 234.505 274.758 235.684 276.21 235.684L281.474 235.684C282.926 235.684 284.105 234.505 284.105 233.053C284.105 231.6 282.926 230.421 281.474 230.421L276.21 230.421C274.758 230.421 273.579 231.6 273.579 233.053ZM273.579 259.368C273.579 260.821 274.758 262 276.21 262L281.474 262C282.926 262 284.105 260.821 284.105 259.368C284.105 257.916 282.926 256.737 281.474 256.737L276.21 256.737C274.758 256.737 273.579 257.916 273.579 259.368ZM307.789 117.263L263.803 177.955C263.316 178.629 263.053 179.439 263.053 180.271L263.053 251.474L242 251.474L242 187.568C242 186.808 241.779 186.063 241.366 185.424L197.263 117.263L220.947 117.263L252.524 166.066C253.297 167.263 254.568 167.868 255.839 167.868C257.039 167.868 258.245 167.329 259.034 166.237L294.526 117.263L307.789 117.263M307.789 112L294.526 112C292.839 112 291.255 112.808 290.266 114.174L255.9 161.592L225.366 114.405C224.397 112.905 222.731 112 220.947 112L197.263 112C195.334 112 193.56 113.055 192.639 114.747C191.718 116.442 191.797 118.503 192.845 120.121L236.737 187.955L236.737 251.474C236.737 254.382 239.092 256.737 242 256.737L263.053 256.737C265.96 256.737 268.316 254.382 268.316 251.474L268.316 180.697L312.05 120.353C313.21 118.75 313.376 116.634 312.476 114.871C311.576 113.108 309.768 112 307.789 112L307.789 112Z" fill="#ffffff" fill-opacity="0.7" fill-rule="nonzero" opacity="1" stroke="none"/>
<path d="M262.001 638.251C262.001 641.011 264.241 643.251 267.001 643.251L277.001 643.251C279.761 643.251 282.001 641.011 282.001 638.251C282.001 635.491 279.761 633.251 277.001 633.251L267.001 633.251C264.241 633.251 262.001 635.491 262.001 638.251ZM262.001 613.25C262.001 616.01 264.241 618.25 267.001 618.25L277.001 618.25C279.761 618.25 282.001 616.01 282.001 613.25C282.001 610.49 279.761 608.25 277.001 608.25L267.001 608.25C264.241 608.25 262.001 610.49 262.001 613.25ZM262.001 663.251C262.001 666.011 264.241 668.251 267.001 668.251L277.001 668.251C279.761 668.251 282.001 666.011 282.001 663.251C282.001 660.491 279.761 658.251 277.001 658.251L267.001 658.251C264.241 658.251 262.001 660.491 262.001 663.251ZM262.001 688.251C262.001 691.011 264.241 693.251 267.001 693.251L277.001 693.251C279.761 693.251 282.001 691.011 282.001 688.251C282.001 685.491 279.761 683.251 277.001 683.251L267.001 683.251C264.241 683.251 262.001 685.491 262.001 688.251ZM362.566 693.471C361.591 693.471 360.601 693.186 359.741 692.591C357.466 691.026 356.891 687.916 358.451 685.641C363.491 678.301 368.832 664.106 368.692 646.281C368.672 643.521 370.887 641.266 373.652 641.241C376.407 641.436 378.672 643.441 378.692 646.201C378.847 666.346 372.597 682.706 366.697 691.301C365.726 692.711 364.161 693.471 362.566 693.471ZM371.042 632.071C368.822 632.071 366.792 630.581 366.206 628.326C364.851 623.115 361.026 615.26 356.326 610.325C354.421 608.325 354.501 605.16 356.501 603.255C358.491 601.36 361.666 601.425 363.571 603.43C368.832 608.96 373.892 618.165 375.882 625.81C376.577 628.481 374.972 631.216 372.302 631.906C371.882 632.016 371.462 632.071 371.042 632.071ZM315.236 578.25C357.456 578.25 392.002 613.125 392.002 655.751C392.002 696.141 360.966 729.521 321.791 732.916L402.002 833.252L351.326 833.252L275.651 733.251L242 733.251L242 833.252L202 833.252L202 578.25L225.235 578.25L242 578.25L315.236 578.25M242 713.251L260.516 713.251L304.021 713.251C330.521 713.251 352.001 687.506 352.001 655.751C352.001 623.995 330.521 598.25 304.021 598.25L242 598.25L242 713.251M315.236 568.25L242 568.25L225.235 568.25L202 568.25C196.475 568.25 192 572.725 192 578.25L192 833.252C192 838.777 196.475 843.252 202 843.252L242 843.252C247.525 843.252 252.001 838.777 252.001 833.252L252.001 743.252L270.676 743.252L343.351 839.287C345.241 841.787 348.191 843.252 351.326 843.252L402.002 843.252C405.847 843.252 409.347 841.047 411.012 837.587C412.677 834.122 412.212 830.012 409.812 827.007L339.901 739.556C375.837 728.681 402.002 694.746 402.002 655.751C402.002 607.5 363.081 568.25 315.236 568.25L315.236 568.25ZM252.001 608.25L304.021 608.25C324.961 608.25 342.001 629.561 342.001 655.751C342.001 681.941 324.961 703.251 304.021 703.251L260.516 703.251L252.001 703.251L252.001 608.25L252.001 608.25Z" fill="#ffffff" fill-opacity="0.7" fill-rule="nonzero" opacity="1" stroke="none"/>
</g>
<clipPath id="ArtboardFrame">
<rect height="1024" width="1024" x="0" y="0"/>
</clipPath>
<g clip-path="url(#ArtboardFrame)" id="Слой-3" vectornator:layerName="Слой 3">
<path d="M224 471.267L261.654 471.267M715.892 430.858L829.405 459.144M883.459 472.614L910.486 479.349M905.081 502.248L715.892 549.392M937.514 486.084L953.73 490.125M2.18566 509.019L2.18566 471.304M227.571 508.983L224 508.983M231.475 508.983L227.571 508.983M262.749 508.983L251.276 508.983M261.654 471.267L753.73 471.267L613.189 436.246L710.486 412L1024 490.125L710.486 568.25L613.189 544.004L753.73 508.983L262.749 508.983M251.276 508.983L231.475 508.983M1.26547 471.335L222.02 471.335M3.1574 508.803L182.932 508.803L222.345 508.803" fill="none" opacity="1" stroke="#ffffff" stroke-linecap="round" stroke-linejoin="round" stroke-opacity="0.7" stroke-width="3"/>
<path d="M471.267 800L471.267 762.346M430.858 308.108L459.144 194.595M472.614 140.541L479.349 113.514M502.248 118.919L549.392 308.108M486.084 86.4865L490.125 70.2703M509.019 1021.81L471.304 1021.81M508.983 796.429L508.983 800M508.983 792.525L508.983 796.429M508.983 761.251L508.983 772.724M471.267 762.346L471.267 270.27L436.246 410.811L412 313.514L490.125 0L568.25 313.514L544.004 410.811L508.983 270.27L508.983 761.251M508.983 772.724L508.983 792.525M471.335 1022.73L471.335 801.98M508.803 1020.84L508.803 841.068L508.803 801.655" fill="none" opacity="1" stroke="#ffffff" stroke-linecap="round" stroke-linejoin="round" stroke-opacity="0.7" stroke-width="3"/>
</g>
</svg>
