<?xml version="1.0" encoding="UTF-8" standalone="no"?>
<!DOCTYPE svg PUBLIC "-//W3C//DTD SVG 1.1//EN" "http://www.w3.org/Graphics/SVG/1.1/DTD/svg11.dtd">
<!-- Created with Vectornator (http://vectornator.io/) -->
<svg height="100%" stroke-miterlimit="10" style="fill-rule:nonzero;clip-rule:evenodd;stroke-linecap:round;stroke-linejoin:round;" version="1.1" viewBox="0 0 400 400" width="100%" xml:space="preserve" xmlns="http://www.w3.org/2000/svg" xmlns:vectornator="http://vectornator.io" xmlns:xlink="http://www.w3.org/1999/xlink">
<defs>
<filter color-interpolation-filters="sRGB" filterUnits="userSpaceOnUse" height="100" id="Filter" width="60" x="150" y="200.49">
<feDropShadow dx="-4.37114e-07" dy="10" flood-color="#000000" flood-opacity="0.333" in="SourceGraphic" result="Shadow" stdDeviation="5"/>
</filter>
<filter color-interpolation-filters="sRGB" filterUnits="userSpaceOnUse" height="100" id="Filter_2" width="100" x="190" y="120.49">
<feDropShadow dx="-4.37114e-07" dy="10" flood-color="#000000" flood-opacity="0.333" in="SourceGraphic" result="Shadow" stdDeviation="5"/>
</filter>
<filter color-interpolation-filters="sRGB" filterUnits="userSpaceOnUse" height="422" id="Filter_3" width="34.0411" x="184.136" y="-0.510317">
<feDropShadow dx="-4.37114e-07" dy="10" flood-color="#000000" flood-opacity="0.333" in="SourceGraphic" result="Shadow" stdDeviation="5"/>
</filter>
<filter color-interpolation-filters="sRGB" filterUnits="userSpaceOnUse" height="34.0412" id="Filter_4" width="422" x="-11" y="193.49">
<feDropShadow dx="-4.37114e-07" dy="10" flood-color="#000000" flood-opacity="0.333" in="SourceGraphic" result="Shadow" stdDeviation="5"/>
</filter>
<filter color-interpolation-filters="sRGB" filterUnits="userSpaceOnUse" height="21" id="Filter_5" width="30.8314" x="184.584" y="159.253">
<feDropShadow dx="-4.37114e-07" dy="10" flood-color="#000000" flood-opacity="0.333" in="SourceGraphic" result="Shadow" stdDeviation="5"/>
</filter>
<filter color-interpolation-filters="sRGB" filterUnits="userSpaceOnUse" height="21" id="Filter_6" width="30.8314" x="185.025" y="79.3771">
<feDropShadow dx="-4.37114e-07" dy="10" flood-color="#000000" flood-opacity="0.333" in="SourceGraphic" result="Shadow" stdDeviation="5"/>
</filter>
<filter color-interpolation-filters="sRGB" filterUnits="userSpaceOnUse" height="21" id="Filter_7" width="30.8314" x="184.124" y="319.547">
<feDropShadow dx="-4.37114e-07" dy="10" flood-color="#000000" flood-opacity="0.333" in="SourceGraphic" result="Shadow" stdDeviation="5"/>
</filter>
<filter color-interpolation-filters="sRGB" filterUnits="userSpaceOnUse" height="21" id="Filter_8" width="30.8314" x="184.584" y="239.637">
<feDropShadow dx="-4.37114e-07" dy="10" flood-color="#000000" flood-opacity="0.333" in="SourceGraphic" result="Shadow" stdDeviation="5"/>
</filter>
<filter color-interpolation-filters="sRGB" filterUnits="userSpaceOnUse" height="30.8309" id="Filter_9" width="21.0993" x="149.555" y="195.074">
<feDropShadow dx="-4.37114e-07" dy="10" flood-color="#000000" flood-opacity="0.333" in="SourceGraphic" result="Shadow" stdDeviation="5"/>
</filter>
<filter color-interpolation-filters="sRGB" filterUnits="userSpaceOnUse" height="30.8309" id="Filter_10" width="21.0993" x="69.4544" y="195.074">
<feDropShadow dx="-4.37114e-07" dy="10" flood-color="#000000" flood-opacity="0.333" in="SourceGraphic" result="Shadow" stdDeviation="5"/>
</filter>
<filter color-interpolation-filters="sRGB" filterUnits="userSpaceOnUse" height="30.8309" id="Filter_11" width="21.0993" x="229.231" y="195.074">
<feDropShadow dx="-4.37114e-07" dy="10" flood-color="#000000" flood-opacity="0.333" in="SourceGraphic" result="Shadow" stdDeviation="5"/>
</filter>
<filter color-interpolation-filters="sRGB" filterUnits="userSpaceOnUse" height="25.5613" id="Filter_12" width="21.0461" x="309.48" y="200.344">
<feDropShadow dx="-4.37114e-07" dy="10" flood-color="#000000" flood-opacity="0.333" in="SourceGraphic" result="Shadow" stdDeviation="5"/>
</filter>
<filter color-interpolation-filters="sRGB" filterUnits="userSpaceOnUse" height="26.2697" id="Filter_13" width="21.0532" x="309.526" y="195.074">
<feDropShadow dx="-4.37114e-07" dy="10" flood-color="#000000" flood-opacity="0.333" in="SourceGraphic" result="Shadow" stdDeviation="5"/>
</filter>
<clipPath id="TextBounds">
<rect height="34" width="20.1846" x="229.696" y="200.49"/>
</clipPath>
<filter color-interpolation-filters="sRGB" filterUnits="userSpaceOnUse" height="236.048" id="Filter_14" width="235.081" x="-20.5" y="-10.5">
<feDropShadow dx="-4.37114e-07" dy="10" flood-color="#000000" flood-opacity="0.333" in="SourceGraphic" result="Shadow" stdDeviation="5"/>
</filter>
<filter color-interpolation-filters="sRGB" filterUnits="userSpaceOnUse" height="30.8309" id="Filter_15" width="21.0993" x="29.3386" y="195.074">
<feDropShadow dx="-4.37114e-07" dy="10" flood-color="#000000" flood-opacity="0.333" in="SourceGraphic" result="Shadow" stdDeviation="5"/>
</filter>
<filter color-interpolation-filters="sRGB" filterUnits="userSpaceOnUse" height="30.8309" id="Filter_16" width="21.0993" x="109.475" y="195.074">
<feDropShadow dx="-4.37114e-07" dy="10" flood-color="#000000" flood-opacity="0.333" in="SourceGraphic" result="Shadow" stdDeviation="5"/>
</filter>
<filter color-interpolation-filters="sRGB" filterUnits="userSpaceOnUse" height="30.8309" id="Filter_17" width="21.0993" x="349.382" y="195.074">
<feDropShadow dx="-4.37114e-07" dy="10" flood-color="#000000" flood-opacity="0.333" in="SourceGraphic" result="Shadow" stdDeviation="5"/>
</filter>
<filter color-interpolation-filters="sRGB" filterUnits="userSpaceOnUse" height="30.8309" id="Filter_18" width="21.0993" x="269.365" y="195.074">
<feDropShadow dx="-4.37114e-07" dy="10" flood-color="#000000" flood-opacity="0.333" in="SourceGraphic" result="Shadow" stdDeviation="5"/>
</filter>
<clipPath id="TextBounds_2">
<rect height="34" width="20.1846" x="269.965" y="200.49"/>
</clipPath>
<filter color-interpolation-filters="sRGB" filterUnits="userSpaceOnUse" height="30.8309" id="Filter_19" width="21.0993" x="-10.5993" y="195.074">
<feDropShadow dx="-4.37114e-07" dy="10" flood-color="#000000" flood-opacity="0.333" in="SourceGraphic" result="Shadow" stdDeviation="5"/>
</filter>
<clipPath id="TextBounds_3">
<rect height="34" width="20.1846" x="310.008" y="200.49"/>
</clipPath>
<clipPath id="TextBounds_4">
<rect height="34" width="20.1846" x="349.824" y="200.49"/>
</clipPath>
<clipPath id="TextBounds_5">
<rect height="34" width="20.1846" x="379.815" y="200.49"/>
</clipPath>
<clipPath id="TextBounds_6">
<rect height="34" width="24.9287" x="147.628" y="200.49"/>
</clipPath>
<clipPath id="TextBounds_7">
<rect height="34" width="24.9287" x="107.52" y="200.49"/>
</clipPath>
<clipPath id="TextBounds_8">
<rect height="34" width="24.9287" x="67.8189" y="200.49"/>
</clipPath>
<clipPath id="TextBounds_9">
<rect height="34" width="24.9287" x="27.7128" y="200.49"/>
</clipPath>
<clipPath id="TextBounds_10">
<rect height="34" width="24.9287" x="0" y="200.49"/>
</clipPath>
<filter color-interpolation-filters="sRGB" filterUnits="userSpaceOnUse" height="21" id="Filter_20" width="30.8314" x="184.584" y="399.247">
<feDropShadow dx="-4.37114e-07" dy="10" flood-color="#000000" flood-opacity="0.333" in="SourceGraphic" result="Shadow" stdDeviation="5"/>
</filter>
<filter color-interpolation-filters="sRGB" filterUnits="userSpaceOnUse" height="21" id="Filter_21" width="30.8314" x="184.584" y="359.46">
<feDropShadow dx="-4.37114e-07" dy="10" flood-color="#000000" flood-opacity="0.333" in="SourceGraphic" result="Shadow" stdDeviation="5"/>
</filter>
<filter color-interpolation-filters="sRGB" filterUnits="userSpaceOnUse" height="21" id="Filter_22" width="30.8314" x="184.584" y="279.493">
<feDropShadow dx="-4.37114e-07" dy="10" flood-color="#000000" flood-opacity="0.333" in="SourceGraphic" result="Shadow" stdDeviation="5"/>
</filter>
<filter color-interpolation-filters="sRGB" filterUnits="userSpaceOnUse" height="21" id="Filter_23" width="30.8314" x="184.584" y="39.6259">
<feDropShadow dx="-4.37114e-07" dy="10" flood-color="#000000" flood-opacity="0.333" in="SourceGraphic" result="Shadow" stdDeviation="5"/>
</filter>
<filter color-interpolation-filters="sRGB" filterUnits="userSpaceOnUse" height="21" id="Filter_24" width="30.8314" x="184.584" y="119.536">
<feDropShadow dx="-4.37114e-07" dy="10" flood-color="#000000" flood-opacity="0.333" in="SourceGraphic" result="Shadow" stdDeviation="5"/>
</filter>
<clipPath id="TextBounds_11">
<rect height="34" width="20.1846" x="200" y="143.004"/>
</clipPath>
<clipPath id="TextBounds_12">
<rect height="34" width="20.1846" x="200" y="103.645"/>
</clipPath>
<clipPath id="TextBounds_13">
<rect height="34" width="20.1846" x="200" y="63.2766"/>
</clipPath>
<clipPath id="TextBounds_14">
<rect height="34" width="20.1846" x="209.646" y="21.2785"/>
</clipPath>
<clipPath id="TextBounds_15">
<rect height="34" width="20.1846" x="209.17" y="-5.33418"/>
</clipPath>
<clipPath id="TextBounds_16">
<rect height="34" width="24.9287" x="175.071" y="223.3"/>
</clipPath>
<clipPath id="TextBounds_17">
<rect height="34" width="24.9287" x="175.071" y="262.692"/>
</clipPath>
<clipPath id="TextBounds_18">
<rect height="34" width="24.9287" x="175.071" y="301.749"/>
</clipPath>
<clipPath id="TextBounds_19">
<rect height="34" width="24.9287" x="175.071" y="343.339"/>
</clipPath>
<clipPath id="TextBounds_20">
<rect height="34" width="24.9287" x="175.071" y="372.868"/>
</clipPath>
</defs>
<g id="Слой-2" vectornator:layerName="Слой 2">
<path d="M200 200.49L200 280.49L160 280.49L160 200.49L200 200.49Z" fill="#bc4123" fill-rule="nonzero" filter="url(#Filter)" stroke="#121313" stroke-linecap="round" stroke-linejoin="bevel" stroke-width="0" vectornator:shadowAngle="1.5708" vectornator:shadowColor="#000000" vectornator:shadowOffset="10" vectornator:shadowOpacity="0.333" vectornator:shadowRadius="10"/>
<path d="M280 200.49L200 200.49L200 120.49" fill="#bc4123" fill-rule="nonzero" filter="url(#Filter_2)" stroke="#121313" stroke-linecap="round" stroke-linejoin="bevel" stroke-width="0" vectornator:shadowAngle="1.5708" vectornator:shadowColor="#000000" vectornator:shadowOffset="10" vectornator:shadowOpacity="0.333" vectornator:shadowRadius="10"/>
<path d="M280 200.49C280 244.676 244.187 280.49 200 280.49L200 200.49L280 200.49Z" fill="#bc4123" fill-rule="nonzero" opacity="1" stroke="none"/>
</g>
<clipPath id="ArtboardFrame">
<rect height="400" width="400" x="0" y="0"/>
</clipPath>
<g clip-path="url(#ArtboardFrame)" id="Слой-1" vectornator:layerName="Слой 1">
<g filter="url(#Filter_3)" vectornator:shadowAngle="1.5708" vectornator:shadowColor="#000000" vectornator:shadowOffset="10" vectornator:shadowOpacity="0.333" vectornator:shadowRadius="10">
<path d="M201.177 0.489683L200 400.49" fill="#ffffff" fill-rule="nonzero" stroke="none"/>
<path d="M201.157 7.49739C201.085 31.8697 200 400.49 200 400.49" fill="none" stroke="#ffffff" stroke-linecap="round" stroke-linejoin="bevel" stroke-width="2"/>
<g fill="#ffffff" stroke="none">
<path d="M201.151 9.24739L208.136 14.518L201.177 0.497424L194.136 14.4768L201.151 9.24739Z" fill="#ffffff"/>
</g>
</g>
<g filter="url(#Filter_4)" vectornator:shadowAngle="1.5708" vectornator:shadowColor="#000000" vectornator:shadowOffset="10" vectornator:shadowOpacity="0.333" vectornator:shadowRadius="10">
<path d="M392.992 200.51C368.62 200.582-5.68434e-14 201.67-5.68434e-14 201.67" fill="none" stroke="#ffffff" stroke-linecap="round" stroke-linejoin="bevel" stroke-width="2"/>
<g fill="#ffffff" stroke="none">
<path d="M391.242 200.516L386.013 207.531L399.992 200.49L385.972 193.531L391.242 200.516Z" fill="#ffffff"/>
</g>
</g>
<path d="M195.084 159.753L204.916 159.753" fill="#ffffff" fill-rule="nonzero" filter="url(#Filter_5)" stroke="#ffffff" stroke-linecap="round" stroke-linejoin="bevel" stroke-width="1" vectornator:shadowAngle="1.5708" vectornator:shadowColor="#000000" vectornator:shadowOffset="10" vectornator:shadowOpacity="0.333" vectornator:shadowRadius="10"/>
<path d="M195.525 79.8771L205.356 79.8771" fill="#ffffff" fill-rule="nonzero" filter="url(#Filter_6)" stroke="#ffffff" stroke-linecap="round" stroke-linejoin="bevel" stroke-width="1" vectornator:shadowAngle="1.5708" vectornator:shadowColor="#000000" vectornator:shadowOffset="10" vectornator:shadowOpacity="0.333" vectornator:shadowRadius="10"/>
<path d="M194.624 320.047L204.455 320.047" fill="#ffffff" fill-rule="nonzero" filter="url(#Filter_7)" stroke="#ffffff" stroke-linecap="round" stroke-linejoin="bevel" stroke-width="1" vectornator:shadowAngle="1.5708" vectornator:shadowColor="#000000" vectornator:shadowOffset="10" vectornator:shadowOpacity="0.333" vectornator:shadowRadius="10"/>
<path d="M195.084 240.137L204.916 240.137" fill="#ffffff" fill-rule="nonzero" filter="url(#Filter_8)" stroke="#ffffff" stroke-linecap="round" stroke-linejoin="bevel" stroke-width="1" vectornator:shadowAngle="1.5708" vectornator:shadowColor="#000000" vectornator:shadowOffset="10" vectornator:shadowOpacity="0.333" vectornator:shadowRadius="10"/>
<path d="M160.155 195.574L160.055 205.405" fill="#ffffff" fill-rule="nonzero" filter="url(#Filter_9)" stroke="#ffffff" stroke-linecap="round" stroke-linejoin="bevel" stroke-width="1" vectornator:shadowAngle="1.5708" vectornator:shadowColor="#000000" vectornator:shadowOffset="10" vectornator:shadowOpacity="0.333" vectornator:shadowRadius="10"/>
<path d="M80.0537 195.574L79.9544 205.405" fill="#ffffff" fill-rule="nonzero" filter="url(#Filter_10)" stroke="#ffffff" stroke-linecap="round" stroke-linejoin="bevel" stroke-width="1" vectornator:shadowAngle="1.5708" vectornator:shadowColor="#000000" vectornator:shadowOffset="10" vectornator:shadowOpacity="0.333" vectornator:shadowRadius="10"/>
<path d="M239.831 195.574L239.731 205.405" fill="#ffffff" fill-rule="nonzero" filter="url(#Filter_11)" stroke="#ffffff" stroke-linecap="round" stroke-linejoin="bevel" stroke-width="1" vectornator:shadowAngle="1.5708" vectornator:shadowColor="#000000" vectornator:shadowOffset="10" vectornator:shadowOpacity="0.333" vectornator:shadowRadius="10"/>
<path d="M320.026 200.844L319.98 205.405" fill="#ffffff" fill-rule="nonzero" filter="url(#Filter_12)" stroke="#ffffff" stroke-linecap="round" stroke-linejoin="bevel" stroke-width="1" vectornator:shadowAngle="1.5708" vectornator:shadowColor="#000000" vectornator:shadowOffset="10" vectornator:shadowOpacity="0.333" vectornator:shadowRadius="10"/>
<path d="M320.08 195.574L320.026 200.844" fill="#ffffff" fill-rule="nonzero" filter="url(#Filter_13)" stroke="#ffffff" stroke-linecap="round" stroke-linejoin="bevel" stroke-width="1" vectornator:shadowAngle="1.5708" vectornator:shadowColor="#000000" vectornator:shadowOffset="10" vectornator:shadowOpacity="0.333" vectornator:shadowRadius="10"/>
<path clip-path="url(#TextBounds)" d="M238.156 224.49L238.156 208.122L234.94 210.858L234.628 210.45L238.156 207.498L238.684 207.498L238.684 224.49L238.156 224.49Z" fill="#ffffff" opacity="1" stroke="none"/>
<g filter="url(#Filter_14)" vectornator:shadowAngle="1.5708" vectornator:shadowColor="#000000" vectornator:shadowOffset="10" vectornator:shadowOpacity="0.333" vectornator:shadowRadius="10">
<path d="M200 204.048L196.919 202.269L196.919 198.711L200 196.932L203.081 198.711L203.081 202.269L200 204.048Z" fill="#ffffff" fill-rule="nonzero" stroke="none"/>
<path d="M200 204.048L196.919 202.269L196.919 198.711L200 196.932L203.081 198.711L203.081 202.269L200 204.048Z" fill="none" stroke="#ffffff" stroke-linecap="round" stroke-linejoin="bevel" stroke-width="3"/>
<g fill="#ffffff" stroke="none">
<path d="M-2.625 0L-10.5 10.5L10.5 0L-10.5-10.5L-2.625 0Z" fill="#ffffff"/>
</g>
</g>
<path d="M39.9379 195.574L39.8386 205.405" fill="#ffffff" fill-rule="nonzero" filter="url(#Filter_15)" stroke="#ffffff" stroke-linecap="round" stroke-linejoin="bevel" stroke-width="1" vectornator:shadowAngle="1.5708" vectornator:shadowColor="#000000" vectornator:shadowOffset="10" vectornator:shadowOpacity="0.333" vectornator:shadowRadius="10"/>
<path d="M120.074 195.574L119.975 205.405" fill="#ffffff" fill-rule="nonzero" filter="url(#Filter_16)" stroke="#ffffff" stroke-linecap="round" stroke-linejoin="bevel" stroke-width="1" vectornator:shadowAngle="1.5708" vectornator:shadowColor="#000000" vectornator:shadowOffset="10" vectornator:shadowOpacity="0.333" vectornator:shadowRadius="10"/>
<path d="M359.981 195.574L359.882 205.405" fill="#ffffff" fill-rule="nonzero" filter="url(#Filter_17)" stroke="#ffffff" stroke-linecap="round" stroke-linejoin="bevel" stroke-width="1" vectornator:shadowAngle="1.5708" vectornator:shadowColor="#000000" vectornator:shadowOffset="10" vectornator:shadowOpacity="0.333" vectornator:shadowRadius="10"/>
<path d="M279.964 195.574L279.865 205.405" fill="#ffffff" fill-rule="nonzero" filter="url(#Filter_18)" stroke="#ffffff" stroke-linecap="round" stroke-linejoin="bevel" stroke-width="1" vectornator:shadowAngle="1.5708" vectornator:shadowColor="#000000" vectornator:shadowOffset="10" vectornator:shadowOpacity="0.333" vectornator:shadowRadius="10"/>
<path clip-path="url(#TextBounds_2)" d="M272.977 224.49L272.977 223.866L278.905 216.906C279.801 215.866 280.513 214.922 281.041 214.074C281.569 213.226 281.833 212.37 281.833 211.506C281.833 210.914 281.737 210.382 281.545 209.91C281.353 209.438 281.085 209.034 280.741 208.698C280.397 208.362 279.989 208.106 279.517 207.93C279.045 207.754 278.537 207.666 277.993 207.666C277.065 207.666 276.249 207.91 275.545 208.398C274.841 208.886 274.345 209.61 274.057 210.57L273.553 210.402C273.857 209.378 274.409 208.59 275.209 208.038C276.009 207.486 276.937 207.21 277.993 207.21C278.633 207.21 279.221 207.314 279.757 207.522C280.293 207.73 280.753 208.022 281.137 208.398C281.521 208.774 281.821 209.214 282.037 209.718C282.253 210.222 282.361 210.762 282.361 211.338C282.361 211.866 282.293 212.362 282.157 212.826C282.021 213.29 281.813 213.758 281.533 214.23C281.253 214.702 280.909 215.198 280.501 215.718C280.093 216.238 279.625 216.81 279.097 217.434L273.529 223.986L282.505 223.986L282.505 224.49L272.977 224.49Z" fill="#ffffff" opacity="1" stroke="none"/>
<path d="M0 195.574L-0.0993196 205.405" fill="#ffffff" fill-rule="nonzero" filter="url(#Filter_19)" stroke="#ffffff" stroke-linecap="round" stroke-linejoin="bevel" stroke-width="1" vectornator:shadowAngle="1.5708" vectornator:shadowColor="#000000" vectornator:shadowOffset="10" vectornator:shadowOpacity="0.333" vectornator:shadowRadius="10"/>
<path clip-path="url(#TextBounds_3)" d="M322.668 220.026C322.668 220.65 322.572 221.246 322.38 221.814C322.188 222.382 321.896 222.886 321.504 223.326C321.112 223.766 320.608 224.118 319.992 224.382C319.376 224.646 318.644 224.778 317.796 224.778C316.708 224.778 315.744 224.53 314.904 224.034C314.064 223.538 313.436 222.882 313.02 222.066L313.524 221.85C313.876 222.586 314.436 223.17 315.204 223.602C315.972 224.034 316.836 224.266 317.796 224.298C318.5 224.314 319.124 224.21 319.668 223.986C320.212 223.762 320.668 223.454 321.036 223.062C321.404 222.67 321.68 222.21 321.864 221.682C322.048 221.154 322.14 220.594 322.14 220.002C322.14 219.266 321.984 218.634 321.672 218.106C321.36 217.578 320.964 217.142 320.484 216.798C320.004 216.454 319.476 216.202 318.9 216.042C318.324 215.882 317.78 215.802 317.268 215.802L316.74 215.802L316.74 215.322L317.268 215.322C317.78 215.322 318.288 215.246 318.792 215.094C319.296 214.942 319.752 214.706 320.16 214.386C320.568 214.066 320.9 213.658 321.156 213.162C321.412 212.666 321.54 212.066 321.54 211.362C321.54 210.802 321.444 210.294 321.252 209.838C321.06 209.382 320.796 208.994 320.46 208.674C320.124 208.354 319.728 208.106 319.272 207.93C318.816 207.754 318.324 207.666 317.796 207.666C317.092 207.666 316.42 207.818 315.78 208.122C315.14 208.426 314.636 208.858 314.268 209.418L313.836 209.13C314.252 208.538 314.8 208.07 315.48 207.726C316.16 207.382 316.932 207.21 317.796 207.21C318.404 207.21 318.968 207.306 319.488 207.498C320.008 207.69 320.456 207.966 320.832 208.326C321.208 208.686 321.504 209.122 321.72 209.634C321.936 210.146 322.044 210.722 322.044 211.362C322.044 211.842 321.976 212.31 321.84 212.766C321.704 213.222 321.492 213.634 321.204 214.002C320.916 214.37 320.544 214.69 320.088 214.962C319.632 215.234 319.092 215.418 318.468 215.514L318.468 215.562C319.188 215.674 319.812 215.874 320.34 216.162C320.868 216.45 321.304 216.794 321.648 217.194C321.992 217.594 322.248 218.038 322.416 218.526C322.584 219.014 322.668 219.514 322.668 220.026Z" fill="#ffffff" opacity="1" stroke="none"/>
<path clip-path="url(#TextBounds_4)" d="M360.828 220.074L360.828 224.49L360.3 224.49L360.3 220.074L352.356 220.074L352.356 219.426L360.012 207.498L360.828 207.498L360.828 219.594L363.66 219.594L363.66 220.074L360.828 220.074ZM360.3 208.074L360.228 208.074L352.836 219.594L360.3 219.594L360.3 208.074Z" fill="#ffffff" opacity="1" stroke="none"/>
<path clip-path="url(#TextBounds_5)" d="M392.739 219.33C392.739 220.226 392.591 221.014 392.295 221.694C391.999 222.374 391.607 222.942 391.119 223.398C390.631 223.854 390.079 224.198 389.463 224.43C388.847 224.662 388.219 224.778 387.579 224.778C386.475 224.778 385.551 224.57 384.807 224.154C384.063 223.738 383.451 223.194 382.971 222.522L383.403 222.186C383.851 222.842 384.415 223.358 385.095 223.734C385.775 224.11 386.603 224.298 387.579 224.298C388.139 224.298 388.695 224.194 389.247 223.986C389.799 223.778 390.295 223.466 390.735 223.05C391.175 222.634 391.531 222.118 391.803 221.502C392.075 220.886 392.211 220.162 392.211 219.33C392.211 218.642 392.099 217.998 391.875 217.398C391.651 216.798 391.331 216.278 390.915 215.838C390.499 215.398 389.987 215.054 389.379 214.806C388.771 214.558 388.075 214.434 387.291 214.434C386.731 214.434 386.183 214.514 385.647 214.674C385.111 214.834 384.611 215.042 384.147 215.298L384.267 207.498L392.019 207.498L392.019 207.978L384.795 207.978L384.651 214.578C385.099 214.354 385.579 214.198 386.091 214.11C386.603 214.022 387.075 213.978 387.507 213.978C388.323 213.978 389.051 214.114 389.691 214.386C390.331 214.658 390.879 215.03 391.335 215.502C391.791 215.974 392.139 216.538 392.379 217.194C392.619 217.85 392.739 218.562 392.739 219.33Z" fill="#ffffff" opacity="1" stroke="none"/>
<g fill="#ffffff" opacity="1" stroke="none">
<path clip-path="url(#TextBounds_6)" d="M150.568 218.634L150.568 218.154L154.888 218.154L154.888 218.634L150.568 218.634Z"/>
<path clip-path="url(#TextBounds_6)" d="M163.288 224.49L163.288 208.122L160.072 210.858L159.76 210.45L163.288 207.498L163.816 207.498L163.816 224.49L163.288 224.49Z"/>
</g>
<g fill="#ffffff" opacity="1" stroke="none">
<path clip-path="url(#TextBounds_7)" d="M110.46 218.634L110.46 218.154L114.78 218.154L114.78 218.634L110.46 218.634Z"/>
<path clip-path="url(#TextBounds_7)" d="M117.732 224.49L117.732 223.866L123.66 216.906C124.556 215.866 125.268 214.922 125.796 214.074C126.324 213.226 126.588 212.37 126.588 211.506C126.588 210.914 126.492 210.382 126.3 209.91C126.108 209.438 125.84 209.034 125.496 208.698C125.152 208.362 124.744 208.106 124.272 207.93C123.8 207.754 123.292 207.666 122.748 207.666C121.82 207.666 121.004 207.91 120.3 208.398C119.596 208.886 119.1 209.61 118.812 210.57L118.308 210.402C118.612 209.378 119.164 208.59 119.964 208.038C120.764 207.486 121.692 207.21 122.748 207.21C123.388 207.21 123.976 207.314 124.512 207.522C125.048 207.73 125.508 208.022 125.892 208.398C126.276 208.774 126.576 209.214 126.792 209.718C127.008 210.222 127.116 210.762 127.116 211.338C127.116 211.866 127.048 212.362 126.912 212.826C126.776 213.29 126.568 213.758 126.288 214.23C126.008 214.702 125.664 215.198 125.256 215.718C124.848 216.238 124.38 216.81 123.852 217.434L118.284 223.986L127.26 223.986L127.26 224.49L117.732 224.49Z"/>
</g>
<g fill="#ffffff" opacity="1" stroke="none">
<path clip-path="url(#TextBounds_8)" d="M70.7589 218.634L70.7589 218.154L75.0789 218.154L75.0789 218.634L70.7589 218.634Z"/>
<path clip-path="url(#TextBounds_8)" d="M87.6789 220.026C87.6789 220.65 87.5829 221.246 87.3909 221.814C87.1989 222.382 86.9069 222.886 86.5149 223.326C86.1229 223.766 85.6189 224.118 85.0029 224.382C84.3869 224.646 83.6549 224.778 82.8069 224.778C81.7189 224.778 80.7549 224.53 79.9149 224.034C79.0749 223.538 78.4469 222.882 78.0309 222.066L78.5349 221.85C78.8869 222.586 79.4469 223.17 80.2149 223.602C80.9829 224.034 81.8469 224.266 82.8069 224.298C83.5109 224.314 84.1349 224.21 84.6789 223.986C85.2229 223.762 85.6789 223.454 86.0469 223.062C86.4149 222.67 86.6909 222.21 86.8749 221.682C87.0589 221.154 87.1509 220.594 87.1509 220.002C87.1509 219.266 86.9949 218.634 86.6829 218.106C86.3709 217.578 85.9749 217.142 85.4949 216.798C85.0149 216.454 84.4869 216.202 83.9109 216.042C83.3349 215.882 82.7909 215.802 82.2789 215.802L81.7509 215.802L81.7509 215.322L82.2789 215.322C82.7909 215.322 83.2989 215.246 83.8029 215.094C84.3069 214.942 84.7629 214.706 85.1709 214.386C85.5789 214.066 85.9109 213.658 86.1669 213.162C86.4229 212.666 86.5509 212.066 86.5509 211.362C86.5509 210.802 86.4549 210.294 86.2629 209.838C86.0709 209.382 85.8069 208.994 85.4709 208.674C85.1349 208.354 84.7389 208.106 84.2829 207.93C83.8269 207.754 83.3349 207.666 82.8069 207.666C82.1029 207.666 81.4309 207.818 80.7909 208.122C80.1509 208.426 79.6469 208.858 79.2789 209.418L78.8469 209.13C79.2629 208.538 79.8109 208.07 80.4909 207.726C81.1709 207.382 81.9429 207.21 82.8069 207.21C83.4149 207.21 83.9789 207.306 84.4989 207.498C85.0189 207.69 85.4669 207.966 85.8429 208.326C86.2189 208.686 86.5149 209.122 86.7309 209.634C86.9469 210.146 87.0549 210.722 87.0549 211.362C87.0549 211.842 86.9869 212.31 86.8509 212.766C86.7149 213.222 86.5029 213.634 86.2149 214.002C85.9269 214.37 85.5549 214.69 85.0989 214.962C84.6429 215.234 84.1029 215.418 83.4789 215.514L83.4789 215.562C84.1989 215.674 84.8229 215.874 85.3509 216.162C85.8789 216.45 86.3149 216.794 86.6589 217.194C87.0029 217.594 87.2589 218.038 87.4269 218.526C87.5949 219.014 87.6789 219.514 87.6789 220.026Z"/>
</g>
<g fill="#ffffff" opacity="1" stroke="none">
<path clip-path="url(#TextBounds_9)" d="M30.6528 218.634L30.6528 218.154L34.9728 218.154L34.9728 218.634L30.6528 218.634Z"/>
<path clip-path="url(#TextBounds_9)" d="M45.9168 220.074L45.9168 224.49L45.3888 224.49L45.3888 220.074L37.4448 220.074L37.4448 219.426L45.1008 207.498L45.9168 207.498L45.9168 219.594L48.7488 219.594L48.7488 220.074L45.9168 220.074ZM45.3888 208.074L45.3168 208.074L37.9248 219.594L45.3888 219.594L45.3888 208.074Z"/>
</g>
<g fill="#ffffff" opacity="1" stroke="none">
<path clip-path="url(#TextBounds_10)" d="M2.94 218.634L2.94 218.154L7.26 218.154L7.26 218.634L2.94 218.634Z"/>
<path clip-path="url(#TextBounds_10)" d="M20.124 219.33C20.124 220.226 19.976 221.014 19.68 221.694C19.384 222.374 18.992 222.942 18.504 223.398C18.016 223.854 17.464 224.198 16.848 224.43C16.232 224.662 15.604 224.778 14.964 224.778C13.86 224.778 12.936 224.57 12.192 224.154C11.448 223.738 10.836 223.194 10.356 222.522L10.788 222.186C11.236 222.842 11.8 223.358 12.48 223.734C13.16 224.11 13.988 224.298 14.964 224.298C15.524 224.298 16.08 224.194 16.632 223.986C17.184 223.778 17.68 223.466 18.12 223.05C18.56 222.634 18.916 222.118 19.188 221.502C19.46 220.886 19.596 220.162 19.596 219.33C19.596 218.642 19.484 217.998 19.26 217.398C19.036 216.798 18.716 216.278 18.3 215.838C17.884 215.398 17.372 215.054 16.764 214.806C16.156 214.558 15.46 214.434 14.676 214.434C14.116 214.434 13.568 214.514 13.032 214.674C12.496 214.834 11.996 215.042 11.532 215.298L11.652 207.498L19.404 207.498L19.404 207.978L12.18 207.978L12.036 214.578C12.484 214.354 12.964 214.198 13.476 214.11C13.988 214.022 14.46 213.978 14.892 213.978C15.708 213.978 16.436 214.114 17.076 214.386C17.716 214.658 18.264 215.03 18.72 215.502C19.176 215.974 19.524 216.538 19.764 217.194C20.004 217.85 20.124 218.562 20.124 219.33Z"/>
</g>
<path d="M195.084 399.747L204.916 399.747" fill="#ffffff" fill-rule="nonzero" filter="url(#Filter_20)" stroke="#ffffff" stroke-linecap="round" stroke-linejoin="bevel" stroke-width="1" vectornator:shadowAngle="1.5708" vectornator:shadowColor="#000000" vectornator:shadowOffset="10" vectornator:shadowOpacity="0.333" vectornator:shadowRadius="10"/>
<path d="M195.084 359.96L204.916 359.96" fill="#ffffff" fill-rule="nonzero" filter="url(#Filter_21)" stroke="#ffffff" stroke-linecap="round" stroke-linejoin="bevel" stroke-width="1" vectornator:shadowAngle="1.5708" vectornator:shadowColor="#000000" vectornator:shadowOffset="10" vectornator:shadowOpacity="0.333" vectornator:shadowRadius="10"/>
<path d="M195.084 279.993L204.916 279.993" fill="#ffffff" fill-rule="nonzero" filter="url(#Filter_22)" stroke="#ffffff" stroke-linecap="round" stroke-linejoin="bevel" stroke-width="1" vectornator:shadowAngle="1.5708" vectornator:shadowColor="#000000" vectornator:shadowOffset="10" vectornator:shadowOpacity="0.333" vectornator:shadowRadius="10"/>
<path d="M195.084 40.1259L204.916 40.1259" fill="#ffffff" fill-rule="nonzero" filter="url(#Filter_23)" stroke="#ffffff" stroke-linecap="round" stroke-linejoin="bevel" stroke-width="1" vectornator:shadowAngle="1.5708" vectornator:shadowColor="#000000" vectornator:shadowOffset="10" vectornator:shadowOpacity="0.333" vectornator:shadowRadius="10"/>
<path d="M195.084 120.036L204.916 120.036" fill="#ffffff" fill-rule="nonzero" filter="url(#Filter_24)" stroke="#ffffff" stroke-linecap="round" stroke-linejoin="bevel" stroke-width="1" vectornator:shadowAngle="1.5708" vectornator:shadowColor="#000000" vectornator:shadowOffset="10" vectornator:shadowOpacity="0.333" vectornator:shadowRadius="10"/>
<path clip-path="url(#TextBounds_11)" d="M208.46 167.004L208.46 150.636L205.244 153.372L204.932 152.964L208.46 150.012L208.988 150.012L208.988 167.004L208.46 167.004Z" fill="#ffffff" opacity="1" stroke="none"/>
<path clip-path="url(#TextBounds_12)" d="M203.012 127.645L203.012 127.021L208.94 120.061C209.836 119.021 210.548 118.077 211.076 117.229C211.604 116.381 211.868 115.525 211.868 114.661C211.868 114.069 211.772 113.537 211.58 113.065C211.388 112.593 211.12 112.189 210.776 111.853C210.432 111.517 210.024 111.261 209.552 111.085C209.08 110.909 208.572 110.821 208.028 110.821C207.1 110.821 206.284 111.065 205.58 111.553C204.876 112.041 204.38 112.765 204.092 113.725L203.588 113.557C203.892 112.533 204.444 111.745 205.244 111.193C206.044 110.641 206.972 110.365 208.028 110.365C208.668 110.365 209.256 110.469 209.792 110.677C210.328 110.885 210.788 111.177 211.172 111.553C211.556 111.929 211.856 112.369 212.072 112.873C212.288 113.377 212.396 113.917 212.396 114.493C212.396 115.021 212.328 115.517 212.192 115.981C212.056 116.445 211.848 116.913 211.568 117.385C211.288 117.857 210.944 118.353 210.536 118.873C210.128 119.393 209.66 119.965 209.132 120.589L203.564 127.141L212.54 127.141L212.54 127.645L203.012 127.645Z" fill="#ffffff" opacity="1" stroke="none"/>
<path clip-path="url(#TextBounds_13)" d="M212.66 82.8126C212.66 83.4366 212.564 84.0326 212.372 84.6006C212.18 85.1686 211.888 85.6726 211.496 86.1126C211.104 86.5526 210.6 86.9046 209.984 87.1686C209.368 87.4326 208.636 87.5646 207.788 87.5646C206.7 87.5646 205.736 87.3166 204.896 86.8206C204.056 86.3246 203.428 85.6686 203.012 84.8526L203.516 84.6366C203.868 85.3726 204.428 85.9566 205.196 86.3886C205.964 86.8206 206.828 87.0526 207.788 87.0846C208.492 87.1006 209.116 86.9966 209.66 86.7726C210.204 86.5486 210.66 86.2406 211.028 85.8486C211.396 85.4566 211.672 84.9966 211.856 84.4686C212.04 83.9406 212.132 83.3806 212.132 82.7886C212.132 82.0526 211.976 81.4206 211.664 80.8926C211.352 80.3646 210.956 79.9286 210.476 79.5846C209.996 79.2406 209.468 78.9886 208.892 78.8286C208.316 78.6686 207.772 78.5886 207.26 78.5886L206.732 78.5886L206.732 78.1086L207.26 78.1086C207.772 78.1086 208.28 78.0326 208.784 77.8806C209.288 77.7286 209.744 77.4926 210.152 77.1726C210.56 76.8526 210.892 76.4446 211.148 75.9486C211.404 75.4526 211.532 74.8526 211.532 74.1486C211.532 73.5886 211.436 73.0806 211.244 72.6246C211.052 72.1686 210.788 71.7806 210.452 71.4606C210.116 71.1406 209.72 70.8926 209.264 70.7166C208.808 70.5406 208.316 70.4526 207.788 70.4526C207.084 70.4526 206.412 70.6046 205.772 70.9086C205.132 71.2126 204.628 71.6446 204.26 72.2046L203.828 71.9166C204.244 71.3246 204.792 70.8566 205.472 70.5126C206.152 70.1686 206.924 69.9966 207.788 69.9966C208.396 69.9966 208.96 70.0926 209.48 70.2846C210 70.4766 210.448 70.7526 210.824 71.1126C211.2 71.4726 211.496 71.9086 211.712 72.4206C211.928 72.9326 212.036 73.5086 212.036 74.1486C212.036 74.6286 211.968 75.0966 211.832 75.5526C211.696 76.0086 211.484 76.4206 211.196 76.7886C210.908 77.1566 210.536 77.4766 210.08 77.7486C209.624 78.0206 209.084 78.2046 208.46 78.3006L208.46 78.3486C209.18 78.4606 209.804 78.6606 210.332 78.9486C210.86 79.2366 211.296 79.5806 211.64 79.9806C211.984 80.3806 212.24 80.8246 212.408 81.3126C212.576 81.8006 212.66 82.3006 212.66 82.8126Z" fill="#ffffff" opacity="1" stroke="none"/>
<path clip-path="url(#TextBounds_14)" d="M220.65 40.8625L220.65 45.2785L220.122 45.2785L220.122 40.8625L212.178 40.8625L212.178 40.2145L219.834 28.2865L220.65 28.2865L220.65 40.3825L223.482 40.3825L223.482 40.8625L220.65 40.8625ZM220.122 28.8625L220.05 28.8625L212.658 40.3825L220.122 40.3825L220.122 28.8625Z" fill="#ffffff" opacity="1" stroke="none"/>
<path clip-path="url(#TextBounds_15)" d="M222.094 13.5058C222.094 14.4018 221.946 15.1898 221.65 15.8698C221.354 16.5498 220.962 17.1178 220.474 17.5738C219.986 18.0298 219.434 18.3738 218.818 18.6058C218.202 18.8378 217.574 18.9538 216.934 18.9538C215.83 18.9538 214.906 18.7458 214.162 18.3298C213.418 17.9138 212.806 17.3698 212.326 16.6978L212.758 16.3618C213.206 17.0178 213.77 17.5338 214.45 17.9098C215.13 18.2858 215.958 18.4738 216.934 18.4738C217.494 18.4738 218.05 18.3698 218.602 18.1618C219.154 17.9538 219.65 17.6418 220.09 17.2258C220.53 16.8098 220.886 16.2938 221.158 15.6778C221.43 15.0618 221.566 14.3378 221.566 13.5058C221.566 12.8178 221.454 12.1738 221.23 11.5738C221.006 10.9738 220.686 10.4538 220.27 10.0138C219.854 9.57382 219.342 9.22982 218.734 8.98182C218.126 8.73382 217.43 8.60982 216.646 8.60982C216.086 8.60982 215.538 8.68982 215.002 8.84982C214.466 9.00982 213.966 9.21782 213.502 9.47382L213.622 1.67382L221.374 1.67382L221.374 2.15382L214.15 2.15382L214.006 8.75382C214.454 8.52982 214.934 8.37382 215.446 8.28582C215.958 8.19782 216.43 8.15382 216.862 8.15382C217.678 8.15382 218.406 8.28982 219.046 8.56182C219.686 8.83382 220.234 9.20582 220.69 9.67782C221.146 10.1498 221.494 10.7138 221.734 11.3698C221.974 12.0258 222.094 12.7378 222.094 13.5058Z" fill="#ffffff" opacity="1" stroke="none"/>
<g fill="#ffffff" opacity="1" stroke="none">
<path clip-path="url(#TextBounds_16)" d="M178.011 241.444L178.011 240.964L182.331 240.964L182.331 241.444L178.011 241.444Z"/>
<path clip-path="url(#TextBounds_16)" d="M190.731 247.3L190.731 230.932L187.515 233.668L187.203 233.26L190.731 230.308L191.259 230.308L191.259 247.3L190.731 247.3Z"/>
</g>
<g fill="#ffffff" opacity="1" stroke="none">
<path clip-path="url(#TextBounds_17)" d="M178.011 280.836L178.011 280.356L182.331 280.356L182.331 280.836L178.011 280.836Z"/>
<path clip-path="url(#TextBounds_17)" d="M185.283 286.692L185.283 286.068L191.211 279.108C192.107 278.068 192.819 277.124 193.347 276.276C193.875 275.428 194.139 274.572 194.139 273.708C194.139 273.116 194.043 272.584 193.851 272.112C193.659 271.64 193.391 271.236 193.047 270.9C192.703 270.564 192.295 270.308 191.823 270.132C191.351 269.956 190.843 269.868 190.299 269.868C189.371 269.868 188.555 270.112 187.851 270.6C187.147 271.088 186.651 271.812 186.363 272.772L185.859 272.604C186.163 271.58 186.715 270.792 187.515 270.24C188.315 269.688 189.243 269.412 190.299 269.412C190.939 269.412 191.527 269.516 192.063 269.724C192.599 269.932 193.059 270.224 193.443 270.6C193.827 270.976 194.127 271.416 194.343 271.92C194.559 272.424 194.667 272.964 194.667 273.54C194.667 274.068 194.599 274.564 194.463 275.028C194.327 275.492 194.119 275.96 193.839 276.432C193.559 276.904 193.215 277.4 192.807 277.92C192.399 278.44 191.931 279.012 191.403 279.636L185.835 286.188L194.811 286.188L194.811 286.692L185.283 286.692Z"/>
</g>
<g fill="#ffffff" opacity="1" stroke="none">
<path clip-path="url(#TextBounds_18)" d="M178.011 319.893L178.011 319.413L182.331 319.413L182.331 319.893L178.011 319.893Z"/>
<path clip-path="url(#TextBounds_18)" d="M194.931 321.285C194.931 321.909 194.835 322.505 194.643 323.073C194.451 323.641 194.159 324.145 193.767 324.585C193.375 325.025 192.871 325.377 192.255 325.641C191.639 325.905 190.907 326.037 190.059 326.037C188.971 326.037 188.007 325.789 187.167 325.293C186.327 324.797 185.699 324.141 185.283 323.325L185.787 323.109C186.139 323.845 186.699 324.429 187.467 324.861C188.235 325.293 189.099 325.525 190.059 325.557C190.763 325.573 191.387 325.469 191.931 325.245C192.475 325.021 192.931 324.713 193.299 324.321C193.667 323.929 193.943 323.469 194.127 322.941C194.311 322.413 194.403 321.853 194.403 321.261C194.403 320.525 194.247 319.893 193.935 319.365C193.623 318.837 193.227 318.401 192.747 318.057C192.267 317.713 191.739 317.461 191.163 317.301C190.587 317.141 190.043 317.061 189.531 317.061L189.003 317.061L189.003 316.581L189.531 316.581C190.043 316.581 190.551 316.505 191.055 316.353C191.559 316.201 192.015 315.965 192.423 315.645C192.831 315.325 193.163 314.917 193.419 314.421C193.675 313.925 193.803 313.325 193.803 312.621C193.803 312.061 193.707 311.553 193.515 311.097C193.323 310.641 193.059 310.253 192.723 309.933C192.387 309.613 191.991 309.365 191.535 309.189C191.079 309.013 190.587 308.925 190.059 308.925C189.355 308.925 188.683 309.077 188.043 309.381C187.403 309.685 186.899 310.117 186.531 310.677L186.099 310.389C186.515 309.797 187.063 309.329 187.743 308.985C188.423 308.641 189.195 308.469 190.059 308.469C190.667 308.469 191.231 308.565 191.751 308.757C192.271 308.949 192.719 309.225 193.095 309.585C193.471 309.945 193.767 310.381 193.983 310.893C194.199 311.405 194.307 311.981 194.307 312.621C194.307 313.101 194.239 313.569 194.103 314.025C193.967 314.481 193.755 314.893 193.467 315.261C193.179 315.629 192.807 315.949 192.351 316.221C191.895 316.493 191.355 316.677 190.731 316.773L190.731 316.821C191.451 316.933 192.075 317.133 192.603 317.421C193.131 317.709 193.567 318.053 193.911 318.453C194.255 318.853 194.511 319.297 194.679 319.785C194.847 320.273 194.931 320.773 194.931 321.285Z"/>
</g>
<g fill="#ffffff" opacity="1" stroke="none">
<path clip-path="url(#TextBounds_19)" d="M178.011 361.483L178.011 361.003L182.331 361.003L182.331 361.483L178.011 361.483Z"/>
<path clip-path="url(#TextBounds_19)" d="M193.275 362.923L193.275 367.339L192.747 367.339L192.747 362.923L184.803 362.923L184.803 362.275L192.459 350.347L193.275 350.347L193.275 362.443L196.107 362.443L196.107 362.923L193.275 362.923ZM192.747 350.923L192.675 350.923L185.283 362.443L192.747 362.443L192.747 350.923Z"/>
</g>
<g fill="#ffffff" opacity="1" stroke="none">
<path clip-path="url(#TextBounds_20)" d="M178.011 391.012L178.011 390.532L182.331 390.532L182.331 391.012L178.011 391.012Z"/>
<path clip-path="url(#TextBounds_20)" d="M195.195 391.708C195.195 392.604 195.047 393.392 194.751 394.072C194.455 394.752 194.063 395.32 193.575 395.776C193.087 396.232 192.535 396.576 191.919 396.808C191.303 397.04 190.675 397.156 190.035 397.156C188.931 397.156 188.007 396.948 187.263 396.532C186.519 396.116 185.907 395.572 185.427 394.9L185.859 394.564C186.307 395.22 186.871 395.736 187.551 396.112C188.231 396.488 189.059 396.676 190.035 396.676C190.595 396.676 191.151 396.572 191.703 396.364C192.255 396.156 192.751 395.844 193.191 395.428C193.631 395.012 193.987 394.496 194.259 393.88C194.531 393.264 194.667 392.54 194.667 391.708C194.667 391.02 194.555 390.376 194.331 389.776C194.107 389.176 193.787 388.656 193.371 388.216C192.955 387.776 192.443 387.432 191.835 387.184C191.227 386.936 190.531 386.812 189.747 386.812C189.187 386.812 188.639 386.892 188.103 387.052C187.567 387.212 187.067 387.42 186.603 387.676L186.723 379.876L194.475 379.876L194.475 380.356L187.251 380.356L187.107 386.956C187.555 386.732 188.035 386.576 188.547 386.488C189.059 386.4 189.531 386.356 189.963 386.356C190.779 386.356 191.507 386.492 192.147 386.764C192.787 387.036 193.335 387.408 193.791 387.88C194.247 388.352 194.595 388.916 194.835 389.572C195.075 390.228 195.195 390.94 195.195 391.708Z"/>
</g>
</g>
</svg>
