<?xml version="1.0" encoding="UTF-8" standalone="no"?>
<!DOCTYPE svg PUBLIC "-//W3C//DTD SVG 1.1//EN" "http://www.w3.org/Graphics/SVG/1.1/DTD/svg11.dtd">
<!-- Created with Vectornator (http://vectornator.io/) -->
<svg height="100%" stroke-miterlimit="10" style="fill-rule:nonzero;clip-rule:evenodd;stroke-linecap:round;stroke-linejoin:round;" version="1.1" viewBox="0 0 512 512" width="100%" xml:space="preserve" xmlns="http://www.w3.org/2000/svg" xmlns:vectornator="http://vectornator.io" xmlns:xlink="http://www.w3.org/1999/xlink">
<defs/>
<clipPath id="ArtboardFrame">
<rect height="512" width="512" x="0" y="0"/>
</clipPath>
<g clip-path="url(#ArtboardFrame)" id="Слой-1" vectornator:layerName="Слой 1">
<path d="M26.1434 261.573L20.3338 261.573C20.3338 267.092 24.4005 270.868 29.3386 272.03C30.2101 272.321 30.7911 271.159 30.2101 270.578C28.4672 268.835 26.1434 265.639 26.1434 261.573ZM58.0963 251.987L69.7156 251.987L69.7156 260.701L58.0963 260.701L58.0963 251.987ZM52.2867 251.987L61.0012 251.987L61.0012 246.177L55.1916 246.177L52.2867 251.987Z" fill="#bc4123" fill-rule="nonzero" opacity="1" stroke="#bc4123" stroke-linecap="butt" stroke-linejoin="round" stroke-width="1"/>
<path d="M14.5241 278.27L27.8863 278.27C33.4054 278.27 37.7627 273.912 37.7627 268.393L37.7627 257.936L14.5241 257.936L14.5241 278.27Z" fill="none" opacity="1" stroke="#bc4123" stroke-linecap="butt" stroke-linejoin="round" stroke-width="1"/>
<path d="M66.8108 249.36L10.7479 249.36C7.26208 249.36 2.32382 253.718 0.290516 260.399C-1.16196 265.047 6.10012 263.885 5.51919 268.242C4.93816 271.728 0 282.766 0 291.771C0 298.452 3.19527 301.647 6.97157 301.647L13.9431 301.647C17.7194 301.647 22.6576 299.033 22.6576 272.6C22.6576 269.695 25.5624 266.789 29.0482 266.789L62.4536 266.789C64.7775 266.789 66.8108 264.757 66.8108 262.432L66.8108 249.36Z" fill="#bc4123" fill-rule="nonzero" opacity="1" stroke="#bc4123" stroke-linecap="butt" stroke-linejoin="round" stroke-width="1"/>
<path d="M480.298 177.46C462.79 177.46 448.597 212.623 448.597 255.999C448.597 299.376 462.79 334.54 480.298 334.54C497.807 334.54 512 299.376 512 256C512 212.624 497.807 177.46 480.298 177.46Z" fill="#bc4123" fill-rule="nonzero" opacity="1" stroke="#bc4123" stroke-linecap="butt" stroke-linejoin="round" stroke-width="1"/>
<path d="M480.298 194.749C466.288 194.749 454.931 222.885 454.931 257.595C454.931 292.303 466.288 320.441 480.298 320.441C494.308 320.441 505.665 292.303 505.665 257.595C505.665 222.885 494.308 194.749 480.298 194.749Z" fill="#ffffff" fill-rule="nonzero" opacity="1" stroke="#bc4123" stroke-linecap="butt" stroke-linejoin="round" stroke-width="1"/>
<path d="M480.298 210.442C469.787 210.442 461.266 231.553 461.266 257.595C461.266 283.637 469.787 304.748 480.298 304.748C490.809 304.748 499.331 283.637 499.331 257.595C499.331 231.553 490.809 210.442 480.298 210.442Z" fill="#bc4123" fill-rule="nonzero" opacity="1" stroke="#bc4123" stroke-linecap="butt" stroke-linejoin="round" stroke-width="1"/>
<path d="M480.298 226.13C473.282 226.124 467.593 240.213 467.593 257.595C467.593 274.976 473.282 289.066 480.298 289.06C487.314 289.066 493.002 274.976 493.002 257.595C493.002 240.213 487.314 226.124 480.298 226.13Z" fill="#ffffff" fill-rule="nonzero" opacity="1" stroke="#bc4123" stroke-linecap="butt" stroke-linejoin="round" stroke-width="1"/>
<path d="M480.298 242.206C476.8 242.203 473.963 249.227 473.963 257.894C473.963 266.56 476.8 273.585 480.298 273.582C483.796 273.585 486.632 266.56 486.632 257.894C486.632 249.227 483.796 242.203 480.298 242.206Z" fill="#bc4123" fill-rule="nonzero" opacity="1" stroke="#bc4123" stroke-linecap="butt" stroke-linejoin="round" stroke-width="1"/>
<path d="M92.9332 256.324L480.192 256.324L480.192 258.297L92.9332 258.297L92.9332 256.324Z" fill="#ffffff" fill-rule="nonzero" opacity="1" stroke="#e94420" stroke-linecap="butt" stroke-linejoin="round" stroke-width="1"/>
<path d="M79.506 266.966L91.5569 272.443L86.627 261.214L97.4449 256.147L87.8589 251.628L92.3785 243.96L79.7799 247.52L75.8084 240.262L72.1109 249.163L72.1109 251.765L76.0822 245.055L77.9994 248.478L78.6844 249.985L80.3277 249.574L87.9964 247.383L86.0792 250.533L84.8462 252.45L86.9009 253.408L92.6524 256.147L85.8053 259.433L84.0246 260.255L84.8462 262.036L87.5851 268.335L80.3277 265.048L78.6844 264.363L77.7255 265.87L75.9452 268.745L72.1109 262.172L72.1109 265.596L75.6714 273.128L79.506 266.966Z" fill="#ffffff" fill-rule="nonzero" opacity="1" stroke="#bc4123" stroke-linecap="butt" stroke-linejoin="round" stroke-width="1"/>
<path d="M73.2749 253.535L71.2208 251.755L71.2208 261.067L72.5902 260.245L74.9182 264.353L76.2876 259.835L82.5874 264.079L78.7521 257.78L84.7775 256.274L79.027 255.179L81.4919 251.071L76.1507 253.535L75.0552 247.646L73.2749 253.535Z" fill="#ffffff" fill-rule="nonzero" opacity="1" stroke="#bc4123" stroke-linecap="butt" stroke-linejoin="round" stroke-width="1"/>
<path d="M478.457 259.805L480.298 261.401L480.298 253.051L479.07 253.788L476.983 250.105L475.755 254.157L470.107 250.35L473.545 255.998L468.143 257.349L473.3 258.332L471.09 262.015L475.878 259.805L476.86 265.084L478.457 259.805Z" fill="#ffffff" fill-rule="nonzero" opacity="1" stroke="#bc4123" stroke-linecap="butt" stroke-linejoin="round" stroke-width="1"/>
</g>
</svg>
